<?xml version="1.0" encoding="utf-8"?>
<!-- Generator: Adobe Illustrator 19.0.0, SVG Export Plug-In . SVG Version: 6.00 Build 0)  -->
<svg version="1.1" id="Capa_1" xmlns="http://www.w3.org/2000/svg" xmlns:xlink="http://www.w3.org/1999/xlink" x="0px" y="0px"
	 viewBox="81 -116 512 512" style="enable-background:new 81 -116 512 512;" xml:space="preserve" width="28px" height="28px">
<style type="text/css">
	.st0{fill:#4BB04F;}
	.st1{fill:#4BB04F;stroke:#FFFFFF;stroke-width:8.672;stroke-miterlimit:10;}
	.st2{fill:#0288D1;}
	.st3{fill:#FFFFFF;}
</style>
<g>
	<g>
		<g>
			<path class="st0" d="M297.3,63.2h-23.7c-18.6,0-33.8,15.2-33.8,33.7v37.2c0,11.2,9.2,20.3,20.3,20.3h50.7
				c11.2,0,20.2-9.1,20.2-20.3V96.9C331,78.4,315.9,63.2,297.3,63.2z"/>
			<path class="st0" d="M285.4,0.5c-16.7,0-30.3,13.6-30.3,30.3c0,16.7,13.6,30.3,30.3,30.3s30.3-13.6,30.3-30.3
				C315.8,14.1,302.2,0.5,285.4,0.5z"/>
		</g>
		<g>
			<path class="st0" d="M400.5,63.2h-23.7c-18.6,0-33.8,15.2-33.8,33.7v37.2c0,11.2,9.2,20.3,20.3,20.3H414
				c11.2,0,20.2-9.1,20.2-20.3V96.9C434.2,78.4,419.1,63.2,400.5,63.2z"/>
			<path class="st0" d="M390.4,0.5c-16.7,0-30.3,13.6-30.3,30.3c0,16.7,13.6,30.3,30.3,30.3s30.3-13.6,30.3-30.3
				C420.7,14.1,407.1,0.5,390.4,0.5z"/>
		</g>
	</g>
	<g>
		<path class="st1" d="M357.6,88.2h-41.3c-18.6,0-33.7,15.1-33.7,33.7v68.2c0,3.7,3,6.7,6.7,6.7h95.2c3.7,0,6.7-3,6.7-6.7v-68.2
			C391.3,103.3,376.2,88.2,357.6,88.2z"/>
		<path class="st1" d="M337,2.5c-20.8,0-37.8,17-37.8,37.8s17,37.8,37.8,37.8s37.8-17,37.8-37.8S357.8,2.5,337,2.5z"/>
	</g>
	<path class="st1" d="M529,279.5H145c-11.8,0-21.3-9.6-21.3-21.3V151.5c0-11.8,9.6-21.3,21.3-21.3h384c11.8,0,21.3,9.6,21.3,21.3
		v106.7C550.3,270,540.8,279.5,529,279.5z"/>
	<polyline class="st2" points="337,279.5 337,279.5 337,279.5 	"/>
	<g>
		<g>
			<path class="st3" d="M224.3,188.9c-3-5.1-9.5-6.9-14.6-3.9l-2.5,1.4v-2.9c0-5.9-4.8-10.7-10.7-10.7c-5.9,0-10.7,4.8-10.7,10.7
				v2.9l-2.5-1.4c-5.1-2.9-11.6-1.2-14.6,3.9s-1.2,11.6,3.9,14.6l2.5,1.4l-2.5,1.4c-5.1,2.9-6.9,9.5-3.9,14.6c2,3.4,5.6,5.3,9.3,5.3
				c1.8,0,3.6-0.5,5.3-1.4l2.5-1.4v2.9c0,5.9,4.8,10.7,10.7,10.7c5.9,0,10.7-4.8,10.7-10.7v-2.9l2.5,1.4c1.7,1,3.5,1.4,5.3,1.4
				c3.7,0,7.3-1.9,9.3-5.3c2.9-5.1,1.2-11.6-3.9-14.6l-2.5-1.4l2.5-1.4C225.5,200.5,227.2,194,224.3,188.9z"/>
			<path class="st3" d="M309.6,188.9c-3-5.1-9.5-6.9-14.6-3.9l-2.5,1.4v-2.9c0-5.9-4.8-10.7-10.7-10.7s-10.7,4.8-10.7,10.7v2.9
				l-2.5-1.4c-5.1-2.9-11.6-1.2-14.6,3.9c-2.9,5.1-1.2,11.6,3.9,14.6l2.5,1.4l-2.5,1.4c-5.1,2.9-6.9,9.5-3.9,14.6
				c2,3.4,5.6,5.3,9.3,5.3c1.8,0,3.6-0.5,5.3-1.4l2.5-1.4v2.9c0,5.9,4.8,10.7,10.7,10.7s10.7-4.8,10.7-10.7v-2.9l2.5,1.4
				c1.7,1,3.5,1.4,5.3,1.4c3.7,0,7.3-1.9,9.3-5.3c2.9-5.1,1.2-11.6-3.9-14.6l-2.5-1.4l2.5-1.4C310.8,200.5,312.5,194,309.6,188.9z"
				/>
			<path class="st3" d="M394.9,188.9c-3-5.1-9.5-6.9-14.6-3.9l-2.5,1.4v-2.9c0-5.9-4.8-10.7-10.7-10.7s-10.7,4.8-10.7,10.7v2.9
				l-2.5-1.4c-5.1-2.9-11.6-1.2-14.6,3.9c-2.9,5.1-1.2,11.6,3.9,14.6l2.5,1.4l-2.5,1.4c-5.1,2.9-6.9,9.5-3.9,14.6
				c2,3.4,5.6,5.3,9.3,5.3c1.8,0,3.6-0.5,5.3-1.4l2.5-1.4v2.9c0,5.9,4.8,10.7,10.7,10.7s10.7-4.8,10.7-10.7v-2.9l2.5,1.4
				c1.7,1,3.5,1.4,5.3,1.4c3.7,0,7.3-1.9,9.3-5.3c2.9-5.1,1.2-11.6-3.9-14.6l-2.5-1.4l2.5-1.4C396.1,200.5,397.9,194,394.9,188.9z"
				/>
		</g>
		<rect x="424.1" y="221.3" class="st3" width="82.5" height="7.5"/>
	</g>
</g>
</svg>
